<svg xmlns="http://www.w3.org/2000/svg" width="614.422" height="87.474" viewBox="0 0 614.422 87.474">
  <defs>
    <style>
      .cls-1 {
        fill: #78c4ab;
      }

      .cls-2 {
        fill: #93f8c2;
      }
    </style>
  </defs>
  <g id="Group_6" data-name="Group 6" transform="translate(-232.901 -558.111)">
    <path id="Union_1" data-name="Union 1" class="cls-1" d="M-.088,86.984C-.515,87.091,0,60.015,0,43.368,0,20.776,15.9,2.217,36.209.185L36.2,0H87.366a20,20,0,0,1,20,20V66.737a20,20,0,0,1-20,20H44.021a36.817,36.817,0,0,1-4.265.247c-4.482,0-6.83.11-17.139.11C17.46,87.094,10.315,87.067-.088,86.984Z" transform="translate(233.158 558.492)"/>
    <path id="Path_103" data-name="Path 103" class="cls-2" d="M94.352,0H479.813c52.109,0,94.352-6.779,94.352,36.3V87H0V36.3C0-6.779,42.243,0,94.352,0Z" transform="translate(273.158 558.5)"/>
  </g>
</svg>
