<svg xmlns="http://www.w3.org/2000/svg" width="3426.308" height="4012.773" viewBox="0 0 3426.308 4012.773">
  <defs>
    <style>
      .cls-1 {
        fill: #78c4ab;
      }

      .cls-2 {
        fill: #2c1d90;
      }

      .cls-3 {
        fill: #93f8c2;
      }

      .cls-4 {
        fill: #ffbb36;
      }

      .cls-5 {
        fill: #fff;
        stroke: #707070;
      }
    </style>
  </defs>
  <g id="Group_11" data-name="Group 11" transform="translate(1319.037 1690.755)">
    <path id="Path_114" data-name="Path 114" class="cls-1" d="M971.99-439.595C1176.059-439.595,739,184.011,739,411s76.295,889.87-127.775,889.87-669.489-255.214-669.489-482.2c0-121.665,204.448-635.1,280.048-710.424C1407.038-1426.3,877.3-439.595,971.99-439.595Z" transform="translate(-38.401 -693.842) rotate(77)"/>
    <g id="Group_9" data-name="Group 9" transform="matrix(0.921, 0.391, -0.391, 0.921, 199.072, -391.28)">
      <path id="Path_102" data-name="Path 102" class="cls-2" d="M429,0c236.93,0,757.466-106.18,757.466,51.5S696.7,483.336,368.534,587.753,0,443.177,0,285.5,192.07,0,429,0Z" transform="translate(-517.519 381.359)"/>
      <path id="Path_115" data-name="Path 115" class="cls-2" d="M429,0c236.93,0,757.466-106.18,757.466,51.5S696.7,483.336,368.534,587.753,0,443.177,0,285.5,192.07,0,429,0Z" transform="translate(376.676 1671.532)"/>
      <path id="Path_98" data-name="Path 98" class="cls-3" d="M2398.516-56.1,233.6-157.175,133.388,23.186s869.318,148.626,1312.325,118.027c362.82-25.06,1021.706-742.058,1017.53-730.865C2462.448-587.5,2185.728,66,2185.728,66" transform="translate(-598.754 98.623)"/>
      <path id="Path_101" data-name="Path 101" class="cls-4" d="M202.5,6.224c-1021.155,109.35,237.36,121.4,397.827,278.262S464.746,566.771,202.5,499.053c-34.879-9.007-82.234-22.4-106.578-30.738C-63.083,413.834,0,366.51,0,249.853,0,115.3,1223.655-103.126,202.5,6.224Z" transform="translate(-26 -20)"/>
    </g>
    <path id="Path_113" data-name="Path 113" class="cls-5" d="M1405.985,174.276l240.57,847.82s-27.993-454.4-1069.97-381.5S-947.923,51.881-947.923,51.881l754.269,1334.113" transform="translate(584.696 -1094.516) rotate(42)"/>
  </g>
</svg>
