<svg id="Symbol_6_1" data-name="Symbol 6 – 1" xmlns="http://www.w3.org/2000/svg" xmlns:xlink="http://www.w3.org/1999/xlink" width="1920" height="1080" viewBox="0 0 1920 1080">
  <defs>
    <style>
      .cls-1 {
        fill: #fff;
        stroke: #707070;
      }

      .cls-2 {
        clip-path: url(#clip-path);
      }

      .cls-3 {
        fill: #78c4ab;
      }

      .cls-4 {
        fill: #ffbb36;
      }

      .cls-5 {
        fill: #2c1d90;
      }
    </style>
    <clipPath id="clip-path">
      <rect id="Rectangle_9" data-name="Rectangle 9" class="cls-1" width="1920" height="1080"/>
    </clipPath>
  </defs>
  <g id="Mask_Group_3" data-name="Mask Group 3" class="cls-2">
    <g id="Group_14" data-name="Group 14">
      <g id="Group_13" data-name="Group 13" transform="translate(13 -646)">
        <path id="Path_112" data-name="Path 112" class="cls-3" d="M971.99-439.595C1176.059-439.595,739,184.011,739,411s76.295,889.87-127.775,889.87-669.489-255.214-669.489-482.2c0-121.665,204.448-635.1,280.048-710.424C1407.038-1426.3,877.3-439.595,971.99-439.595Z" transform="translate(1532.914 977)"/>
        <ellipse id="Ellipse_19" data-name="Ellipse 19" class="cls-4" cx="925.5" cy="283.5" rx="925.5" ry="283.5" transform="matrix(0.899, -0.438, 0.438, 0.899, 678.302, 1904.404)"/>
        <path id="Path_108" data-name="Path 108" class="cls-1" d="M2710.592-292.642l227.584,1633.706S3562.327,515,2054.03,826.175-20.781,273.673-20.781,273.673L807.85,2058.395" transform="translate(-100.434 -61.117) rotate(42)"/>
      </g>
      <path id="Path_115" data-name="Path 115" class="cls-5" d="M536.487,7.488c296.293,0,947.251-128.917,947.251,62.525S871.261,594.323,460.87,721.1,0,545.565,0,354.124,240.193,7.488,536.487,7.488Z" transform="matrix(0.921, 0.391, -0.391, 0.921, -21.956, 649.4)"/>
    </g>
  </g>
</svg>
